# xmcd
#
# Track frame offsets:
#	150
#	17092
#	34502
#	49371
#	63068
#	80302
#	95604
#	110700
#	122401
#	147581
#
# Disc length: 2281 seconds
#
# Revision: 1
# Processed by: cddbd v1.4PL0 Copyright (c) Steve Scherf et al.
# Submitted via: EasyCDDAExtractor 6.0.0.1
#
DISCID=8108e70a
DTITLE=The Traveling Wilburys - Volume 2
DYEAR=1900
DGENRE=Blues
TTITLE0=Walk Away
TTITLE1=Last Night
TTITLE2=Congratulations
TTITLE3=Rattled
TTITLE4=Heading For The Light
TTITLE5=End Of The Line
TTITLE6=Handle With Care
TTITLE7=Dirty World
TTITLE8=End Of The Line (12" Version)
TTITLE9=Handle With Care (12" Version)
EXTD=
EXTT0=
EXTT1=
EXTT2=
EXTT3=
EXTT4=
EXTT5=
EXTT6=
EXTT7=
EXTT8=
EXTT9=
PLAYORDER=
